<?xml version="1.0" standalone="no"?>
<!DOCTYPE svg PUBLIC "-//W3C//DTD SVG 20010904//EN"
 "http://www.w3.org/TR/2001/REC-SVG-20010904/DTD/svg10.dtd">
<svg version="1.0" xmlns="http://www.w3.org/2000/svg"
 width="240.000000pt" height="240.000000pt" viewBox="0 0 240.000000 240.000000"
 preserveAspectRatio="xMidYMid meet">
<metadata>
Created by potrace 1.11, written by Peter Selinger 2001-2013
</metadata>
<g transform="translate(0.000000,240.000000) scale(0.100000,-0.100000)"
fill="#000000" stroke="none">
<path d="M1194 2278 l-71 -40 -7 -97 c-3 -53 -6 -133 -6 -178 l0 -82 42 18 42
18 18 99 c10 54 17 103 15 108 -2 6 -19 -29 -37 -77 -19 -47 -36 -84 -38 -82
-2 2 -1 49 3 103 l7 100 62 18 61 18 -52 9 c-59 11 -64 18 -30 39 79 52 191
61 272 23 115 -55 185 -186 185 -349 0 -76 -10 -103 -66 -175 -3 -3 -203 165
-214 181 -3 3 -18 56 -34 117 -16 61 -30 110 -32 108 -2 -2 2 -54 10 -116 l14
-113 73 -66 c62 -57 182 -152 192 -152 13 0 77 103 82 133 4 20 10 37 14 37
14 -1 157 -181 168 -212 7 -18 12 -86 12 -151 1 -64 8 -163 16 -218 23 -150
14 -175 -129 -358 -69 -89 -213 -333 -186 -316 5 3 44 54 87 113 43 59 106
145 141 192 86 115 107 159 127 272 16 92 16 108 1 275 -16 177 -17 178 -53
231 -20 30 -69 84 -109 120 l-72 67 -4 75 c-3 61 -10 89 -41 153 -39 84 -49
95 -141 157 -58 40 -59 40 -155 40 -94 -1 -97 -1 -167 -42z"/>
<path d="M463 2183 c-40 -4 -44 -8 -101 -91 -82 -120 -84 -124 -103 -237 l-17
-100 91 -147 c50 -81 92 -146 94 -145 1 2 7 34 13 72 12 81 76 304 120 419 16
44 28 81 26 83 -3 3 -122 -243 -147 -302 -7 -16 -15 -70 -18 -120 l-6 -90 -79
117 -78 117 22 93 c21 86 79 214 132 291 19 26 23 27 107 27 82 0 181 -21 181
-39 0 -4 -16 -15 -36 -25 -46 -22 -39 -31 9 -11 31 13 67 12 67 -1 0 -2 -9
-45 -20 -96 -27 -117 -21 -135 9 -30 13 45 27 82 30 82 4 0 21 -25 40 -56 18
-30 35 -54 37 -51 2 2 -16 47 -40 99 -48 103 -47 102 -155 132 -52 15 -87 17
-178 9z"/>
<path d="M886 2109 c-58 -37 -56 -47 5 -19 29 13 66 20 107 20 34 0 62 4 62
10 0 6 -22 10 -49 10 -27 0 -55 2 -63 5 -7 3 -35 -9 -62 -26z"/>
<path d="M540 1758 c-16 -71 -30 -272 -23 -328 5 -44 99 -327 114 -344 12 -14
-50 224 -73 281 -21 51 -21 58 -10 245 6 106 9 194 7 196 -1 2 -8 -21 -15 -50z"/>
<path d="M880 1763 c-69 -25 -81 -38 -154 -157 -48 -78 -80 -143 -90 -182 -15
-59 -15 -62 10 -135 22 -63 27 -100 33 -239 10 -239 -4 -218 243 -340 112 -55
209 -98 216 -95 7 3 10 0 7 -5 -5 -8 8 -14 18 -9 1 1 21 -8 44 -20 23 -11 49
-21 57 -21 12 0 13 -5 4 -31 -9 -27 -7 -33 18 -61 29 -30 84 -64 84 -52 0 4
-18 26 -40 50 -25 27 -40 53 -40 69 0 21 5 25 31 25 45 0 149 28 185 51 23 14
33 30 42 68 6 27 27 91 47 141 20 51 57 163 82 250 l46 159 -23 68 c-24 73
-117 261 -137 278 -17 14 -73 99 -68 103 2 3 46 -17 97 -42 l93 -47 -45 41
c-58 53 -85 67 -165 85 -151 35 -543 67 -595 48z m440 -265 l24 -58 60 0 c94
0 95 -5 41 -99 -26 -44 -51 -83 -55 -86 -5 -3 -33 -7 -62 -8 -61 -4 -125 -31
-133 -57 -3 -9 -33 -28 -68 -43 -85 -34 -99 -39 -92 -27 4 6 -10 10 -34 10
-28 0 -48 -8 -70 -26 -17 -14 -29 -30 -25 -35 13 -22 -25 -7 -40 16 -15 23
-15 25 5 36 12 6 54 14 93 18 62 6 68 8 49 19 -25 14 -129 -1 -154 -24 -13
-12 -20 -6 -56 49 -42 63 -73 129 -73 153 0 9 11 14 31 14 89 0 297 82 474
188 28 17 53 27 56 24 3 -4 17 -33 29 -64z m215 -63 c-14 -37 -25 -81 -25 -98
0 -17 -16 -66 -36 -109 l-37 -77 -24 19 c-13 10 -42 22 -65 25 l-42 7 51 20
c52 19 52 19 125 153 40 74 74 132 76 131 1 -2 -9 -34 -23 -71z m18 -89 c10
-8 27 -47 38 -87 11 -41 25 -78 30 -83 5 -6 9 -41 9 -79 0 -86 -35 -207 -97
-335 -41 -85 -50 -96 -105 -132 -62 -41 -101 -49 -141 -29 -12 7 -63 43 -114
81 -123 93 -204 208 -148 208 8 0 31 14 51 32 32 28 36 36 31 69 -5 35 -3 39
27 49 24 8 28 13 16 20 -17 10 -14 15 16 24 18 5 23 2 28 -19 9 -37 84 -69
138 -61 88 14 148 73 134 131 -5 19 3 45 30 95 28 53 35 77 30 100 -6 33 0 36
27 16z m-880 -35 c2 -10 1 -25 -4 -32 -6 -10 -9 -4 -9 19 0 36 5 42 13 13z
m989 -67 c-22 -29 -25 -25 -11 15 8 23 14 29 19 20 5 -7 1 -22 -8 -35z m-926
-86 c17 -52 22 -81 17 -118 -5 -41 -3 -50 9 -50 9 0 23 -10 32 -22 16 -23 16
-23 10 7 -4 25 -3 27 6 13 6 -10 18 -18 25 -18 14 0 19 -12 16 -32 -1 -9 111
-151 167 -213 83 -91 67 -86 -154 46 -119 72 -128 87 -153 294 -12 94 -24 181
-26 195 -5 24 -4 23 11 -4 9 -16 27 -60 40 -98z m564 62 c0 -5 -2 -10 -4 -10
-3 0 -8 5 -11 10 -3 6 -1 10 4 10 6 0 11 -4 11 -10z m-45 -20 c3 -5 2 -10 -4
-10 -5 0 -18 -3 -28 -7 -16 -6 -16 -5 -4 10 15 19 27 22 36 7z m-441 -108 c2
-47 -1 -62 -12 -67 -23 -8 -24 -3 -16 75 8 85 23 81 28 -8z m393 60 c-10 -10
-17 -23 -17 -29 0 -6 -13 -16 -30 -21 -24 -9 -31 -8 -39 6 -8 14 -1 20 42 38
65 28 63 28 44 6z m-187 -42 c0 -5 -5 -10 -11 -10 -5 0 -7 5 -4 10 3 6 8 10
11 10 2 0 4 -4 4 -10z m84 -6 c9 -24 7 -31 -5 -11 -12 20 -31 13 -22 -8 6 -17
-14 -20 -37 -5 -16 10 -15 11 20 27 34 16 37 15 44 -3z m-134 -13 c0 -5 -9
-11 -20 -14 -22 -6 -26 3 -8 21 11 11 28 7 28 -7z m46 -10 c-13 -20 72 -36
101 -18 6 4 14 3 17 -2 4 -5 -9 -14 -27 -20 -27 -9 -40 -8 -63 4 -16 8 -45 15
-64 16 l-35 1 35 13 c44 17 42 17 36 6z m-136 -51 c-8 -5 -19 -10 -25 -10 -5
0 -3 5 5 10 8 5 20 10 25 10 6 0 3 -5 -5 -10z"/>
<path d="M1304 1294 c-18 -15 -18 -15 6 -10 14 3 31 6 38 6 6 0 12 5 12 10 0
15 -34 12 -56 -6z"/>
<path d="M1197 1254 c-63 -32 -88 -56 -74 -71 3 -3 18 4 33 16 15 12 47 30 71
41 24 10 43 26 43 34 0 9 -1 16 -2 16 -2 -1 -34 -17 -71 -36z"/>
<path d="M1477 1308 c-3 -18 -8 -42 -11 -53 -4 -11 3 0 15 24 13 27 17 47 11
53 -6 6 -11 -3 -15 -24z"/>
<path d="M1400 1212 c0 -7 -6 -10 -12 -7 -7 4 -4 -1 6 -9 24 -19 32 -14 17 11
-6 11 -11 13 -11 5z"/>
<path d="M1277 985 l33 -15 -36 -50 c-20 -27 -40 -52 -45 -56 -21 -13 -7 -23
19 -12 43 19 81 60 82 89 0 31 -14 45 -55 53 l-30 6 32 -15z"/>
<path d="M1280 795 c-7 -8 -21 -15 -32 -15 -26 0 -58 -18 -58 -33 0 -7 11 -25
25 -40 21 -22 35 -27 71 -27 68 0 104 29 124 101 l9 29 -63 0 c-44 0 -67 -5
-76 -15z m41 -55 c-13 -11 -33 -20 -44 -20 -17 0 -15 4 13 19 45 26 61 26 31
1z"/>
<path d="M1781 1445 c-21 -207 -39 -314 -67 -398 -14 -43 -24 -80 -22 -83 3
-2 28 49 57 113 l52 118 -3 190 -3 190 -14 -130z"/>
<path d="M1484 523 c-6 -32 -10 -60 -8 -61 1 -2 12 15 24 37 16 32 18 46 10
61 -6 11 -12 20 -13 20 -2 0 -8 -26 -13 -57z"/>
<path d="M1386 536 c3 -8 9 -36 14 -62 l8 -49 1 47 c1 50 -6 78 -20 78 -4 0
-6 -6 -3 -14z"/>
<path d="M1546 499 c4 -7 29 -41 55 -76 l49 -64 0 -83 c0 -65 -4 -87 -16 -97
-15 -13 -16 -7 -12 71 l5 85 -49 63 c-27 34 -52 62 -54 62 -3 0 14 -33 36 -74
l41 -74 -7 -96 -7 -96 24 0 c65 1 69 6 68 89 0 42 -4 97 -8 124 -9 55 -69 148
-107 166 -19 8 -23 8 -18 0z"/>
<path d="M1132 385 c-50 -62 -53 -69 -77 -187 -14 -68 -25 -130 -25 -138 0
-22 62 -60 98 -60 l32 0 0 145 0 146 33 52 c50 78 51 81 40 74 -6 -4 -29 -31
-52 -60 l-41 -54 0 -141 0 -142 -45 22 c-30 15 -44 27 -41 38 3 8 14 62 26
120 20 98 34 131 94 223 31 47 12 30 -42 -38z"/>
</g>
</svg>
